<svg width="587" height="400" viewBox="0 0 587 400" fill="none" xmlns="http://www.w3.org/2000/svg">
<g opacity="0.1">
<path d="M173.466 173.04H146.106V141.6H109.386V173.04H64.2661L137.706 72H96.9061L17.7061 178.56V204.72H108.186V240H146.106V204.72H173.466V173.04Z" fill="#3E3BD6"/>
<path d="M578.466 173.04H551.106V141.6H514.386V173.04H469.266L542.706 72H501.906L422.706 178.56V204.72H513.186V240H551.106V204.72H578.466V173.04Z" fill="#3E3BD6"/>
<path d="M258.75 180.36V141.96C258.75 130.68 264.51 124.2 276.27 124.2H280.59V94.9199H266.67C236.67 94.9199 221.31 110.28 221.31 137.88V181.32C221.31 189 217.23 192.6 210.75 192.6H202.83V221.88H210.75C217.23 221.88 221.31 225.48 221.31 233.16V276.6C221.31 304.2 236.67 319.56 266.67 319.56H280.59V290.28H276.27C264.51 290.28 258.75 283.8 258.75 272.52V234.12C258.75 217.56 253.71 210.6 242.67 207.24C253.71 203.88 258.75 196.92 258.75 180.36Z" fill="#3E3BD6"/>
<path d="M380.34 192.6C373.86 192.6 369.78 189 369.78 181.32V137.88C369.78 110.28 354.42 94.9199 324.42 94.9199H310.5V124.2H314.82C326.58 124.2 332.34 130.68 332.34 141.96V180.36C332.34 196.92 337.38 203.88 348.42 207.24C337.38 210.6 332.34 217.56 332.34 234.12V272.52C332.34 283.8 326.58 290.28 314.82 290.28H310.5V319.56H324.42C354.42 319.56 369.78 304.2 369.78 276.6V233.16C369.78 225.48 373.86 221.88 380.34 221.88H388.26V192.6H380.34Z" fill="#3E3BD6"/>
</g>
<path d="M97.6007 381.384C104.641 381.384 109.857 376.488 109.857 369.8C109.857 363.112 104.641 358.216 97.6007 358.216C90.5287 358.216 85.3447 363.144 85.3447 369.8C85.3447 376.456 90.5287 381.384 97.6007 381.384ZM97.6007 376.968C93.6007 376.968 90.5927 374.056 90.5927 369.8C90.5927 365.544 93.6007 362.632 97.6007 362.632C101.601 362.632 104.609 365.544 104.609 369.8C104.609 374.056 101.601 376.968 97.6007 376.968Z" fill="#212529"/>
<path d="M124.121 381.384C131.161 381.384 136.377 376.488 136.377 369.8C136.377 363.112 131.161 358.216 124.121 358.216C117.049 358.216 111.865 363.144 111.865 369.8C111.865 376.456 117.049 381.384 124.121 381.384ZM124.121 376.968C120.121 376.968 117.113 374.056 117.113 369.8C117.113 365.544 120.121 362.632 124.121 362.632C128.121 362.632 131.129 365.544 131.129 369.8C131.129 374.056 128.121 376.968 124.121 376.968Z" fill="#212529"/>
<path d="M149.489 358.6H139.793V381H144.977V374.824H149.489C155.473 374.824 159.217 371.72 159.217 366.728C159.217 361.704 155.473 358.6 149.489 358.6ZM149.201 370.6H144.977V362.824H149.201C152.369 362.824 153.969 364.264 153.969 366.728C153.969 369.16 152.369 370.6 149.201 370.6Z" fill="#212529"/>
<path d="M170.11 381.384C176.51 381.384 179.614 378.184 179.614 374.44C179.614 366.216 166.59 369.064 166.59 364.936C166.59 363.528 167.774 362.376 170.846 362.376C172.83 362.376 174.974 362.952 177.054 364.136L178.654 360.2C176.574 358.888 173.694 358.216 170.878 358.216C164.51 358.216 161.438 361.384 161.438 365.192C161.438 373.512 174.462 370.632 174.462 374.824C174.462 376.2 173.214 377.224 170.142 377.224C167.454 377.224 164.638 376.264 162.75 374.888L160.99 378.792C162.974 380.328 166.558 381.384 170.11 381.384Z" fill="#212529"/>
<path d="M182.676 373.224H186.644L187.636 358.6H181.684L182.676 373.224ZM184.66 381.256C186.452 381.256 187.732 379.944 187.732 378.344C187.732 376.712 186.452 375.496 184.66 375.496C182.868 375.496 181.588 376.712 181.588 378.344C181.588 379.944 182.868 381.256 184.66 381.256Z" fill="#212529"/>
<path d="M209.725 358.6H200.029V381H205.213V374.824H209.725C215.709 374.824 219.453 371.72 219.453 366.728C219.453 361.704 215.709 358.6 209.725 358.6ZM209.437 370.6H205.213V362.824H209.437C212.605 362.824 214.205 364.264 214.205 366.728C214.205 369.16 212.605 370.6 209.437 370.6Z" fill="#212529"/>
<path d="M238.285 381H243.725L233.709 358.6H228.589L218.605 381H223.917L225.901 376.2H236.301L238.285 381ZM227.565 372.264L231.117 363.688L234.669 372.264H227.565Z" fill="#212529"/>
<path d="M260.392 376.008C259.08 376.712 257.768 376.968 256.36 376.968C252.072 376.968 249.096 373.992 249.096 369.8C249.096 365.544 252.072 362.632 256.424 362.632C258.696 362.632 260.584 363.432 262.216 365.16L265.544 362.088C263.368 359.56 260.104 358.216 256.168 358.216C249.032 358.216 243.848 363.048 243.848 369.8C243.848 376.552 249.032 381.384 256.072 381.384C259.272 381.384 262.664 380.392 265.128 378.536V369.448H260.392V376.008Z" fill="#212529"/>
<path d="M274.616 376.84V371.656H285.016V367.624H274.616V362.76H286.392V358.6H269.464V381H286.808V376.84H274.616Z" fill="#212529"/>
<path d="M314.459 358.6V372.2L303.323 358.6H299.035V381H304.155V367.4L315.323 381H319.579V358.6H314.459Z" fill="#212529"/>
<path d="M335.247 381.384C342.287 381.384 347.503 376.488 347.503 369.8C347.503 363.112 342.287 358.216 335.247 358.216C328.175 358.216 322.991 363.144 322.991 369.8C322.991 376.456 328.175 381.384 335.247 381.384ZM335.247 376.968C331.247 376.968 328.239 374.056 328.239 369.8C328.239 365.544 331.247 362.632 335.247 362.632C339.247 362.632 342.255 365.544 342.255 369.8C342.255 374.056 339.247 376.968 335.247 376.968Z" fill="#212529"/>
<path d="M355.246 381H360.43V362.824H367.598V358.6H348.078V362.824H355.246V381Z" fill="#212529"/>
<path d="M395.418 362.76V358.6H378.49V381H383.674V372.84H394.042V368.68H383.674V362.76H395.418Z" fill="#212529"/>
<path d="M409.077 381.384C416.117 381.384 421.333 376.488 421.333 369.8C421.333 363.112 416.117 358.216 409.077 358.216C402.005 358.216 396.821 363.144 396.821 369.8C396.821 376.456 402.005 381.384 409.077 381.384ZM409.077 376.968C405.077 376.968 402.069 374.056 402.069 369.8C402.069 365.544 405.077 362.632 409.077 362.632C413.077 362.632 416.085 365.544 416.085 369.8C416.085 374.056 413.077 376.968 409.077 376.968Z" fill="#212529"/>
<path d="M434.701 381.384C441.069 381.384 444.845 377.736 444.845 371.144V358.6H439.725V370.952C439.725 375.208 437.901 376.968 434.733 376.968C431.597 376.968 429.741 375.208 429.741 370.952V358.6H424.557V371.144C424.557 377.736 428.333 381.384 434.701 381.384Z" fill="#212529"/>
<path d="M464.912 358.6V372.2L453.776 358.6H449.488V381H454.608V367.4L465.776 381H470.032V358.6H464.912Z" fill="#212529"/>
<path d="M474.851 381H485.027C492.355 381 497.379 376.584 497.379 369.8C497.379 363.016 492.355 358.6 485.027 358.6H474.851V381ZM480.035 376.744V362.856H484.771C489.219 362.856 492.131 365.512 492.131 369.8C492.131 374.088 489.219 376.744 484.771 376.744H480.035Z" fill="#212529"/>
<path d="M501.72 381.256C503.448 381.256 504.824 379.944 504.824 378.12C504.824 376.264 503.448 375.048 501.72 375.048C499.992 375.048 498.616 376.264 498.616 378.12C498.616 379.944 499.992 381.256 501.72 381.256Z" fill="#212529"/>
<path d="M166.466 167.04H139.106V135.6H102.386V167.04H57.2661L130.706 66H89.9061L10.7061 172.56V198.72H101.186V234H139.106V198.72H166.466V167.04Z" fill="#6764F1"/>
<path d="M571.466 167.04H544.106V135.6H507.386V167.04H462.266L535.706 66H494.906L415.706 172.56V198.72H506.186V234H544.106V198.72H571.466V167.04Z" fill="#6764F1"/>
<path d="M251.75 174.36V135.96C251.75 124.68 257.51 118.2 269.27 118.2H273.59V88.9199H259.67C229.67 88.9199 214.31 104.28 214.31 131.88V175.32C214.31 183 210.23 186.6 203.75 186.6H195.83V215.88H203.75C210.23 215.88 214.31 219.48 214.31 227.16V270.6C214.31 298.2 229.67 313.56 259.67 313.56H273.59V284.28H269.27C257.51 284.28 251.75 277.8 251.75 266.52V228.12C251.75 211.56 246.71 204.6 235.67 201.24C246.71 197.88 251.75 190.92 251.75 174.36Z" fill="#6764F1"/>
<path d="M373.34 186.6C366.86 186.6 362.78 183 362.78 175.32V131.88C362.78 104.28 347.42 88.9199 317.42 88.9199H303.5V118.2H307.82C319.58 118.2 325.34 124.68 325.34 135.96V174.36C325.34 190.92 330.38 197.88 341.42 201.24C330.38 204.6 325.34 211.56 325.34 228.12V266.52C325.34 277.8 319.58 284.28 307.82 284.28H303.5V313.56H317.42C347.42 313.56 362.78 298.2 362.78 270.6V227.16C362.78 219.48 366.86 215.88 373.34 215.88H381.26V186.6H373.34Z" fill="#6764F1"/>
</svg>
